<?xml version="1.0" encoding="utf-8"?>
<!-- Generator: Adobe Illustrator 19.0.0, SVG Export Plug-In . SVG Version: 6.00 Build 0)  -->
<svg version="1.1" id="Layer_1_1_" xmlns="http://www.w3.org/2000/svg" xmlns:xlink="http://www.w3.org/1999/xlink" x="0px" y="0px"
	 viewBox="-242 119 64 64" style="enable-background:new -242 119 64 64;" xml:space="preserve">
<style type="text/css">
	.st0{fill:#305993;}
</style>
<g id="Guide">
</g>
<g>
	<path class="st0" d="M-241.1,144.5l2.2,8.1l0,0l0,0l1.5,5.4c0.1,0.4,0.5,0.7,0.9,0.7l19.5,0.6c0.1,0,0.2,0,0.3,0l3.6-1l2.9,10.9
		c0.1,0.5,0.6,0.8,1.1,0.7l4.5-1.2c0.3-0.1,0.6-0.4,0.7-0.7l2.6-12.8l19-5.1c2.4-0.6,3.9-3.1,3.2-5.6c-0.6-2.1-2.5-3.5-4.7-3.4h-0.7
		c-0.5,0-1-0.1-1.5-0.4l-2.4-1.4c-1.1-0.6-2.3-0.8-3.4-0.5l-12.9,3.5l-8.7-9.8c-0.2-0.3-0.6-0.4-0.9-0.3l-4.5,1.2
		c-0.5,0.1-0.8,0.6-0.7,1.1l3,11.2l-11.3,3l-7.3-6.4c-0.2-0.2-0.6-0.3-0.9-0.2l-4.5,1.2C-241,143.5-241.3,144-241.1,144.5z
		 M-238.3,147.6l3.7,2.9l-2.7,0.7L-238.3,147.6z M-230,149.3l-2.4,0.6l-6.5-5.1l2.9-0.8L-230,149.3z M-206.7,143l-8,2.2l-2.7-10
		l3.1-0.8L-206.7,143z M-211.6,156.9l-0.9-3.6l10.3-2.8l-0.7,3.6l-2.6,12.8l-3.1,0.8L-211.6,156.9z M-236.9,153.1l21.7-5.8l10.4-2.8
		l13.5-3.6c0.7-0.2,1.4-0.1,2,0.3l2.4,1.4c0.8,0.5,1.7,0.7,2.6,0.6h0.7c1.3-0.1,2.4,0.7,2.7,2c0.4,1.4-0.5,2.9-1.9,3.3l-18.1,4.9
		l0.7-3.6c0.1-0.3,0-0.6-0.3-0.9c-0.2-0.2-0.6-0.3-0.9-0.2l-12.7,3.4c-0.5,0.1-0.8,0.6-0.7,1.1l1,3.6l-3.5,0.9l-18.7-0.6
		L-236.9,153.1z"/>
	
		<rect x="-193.6" y="143.1" transform="matrix(-0.9659 0.2588 -0.2588 -0.9659 -341.345 333.1347)" class="st0" width="1.9" height="1.9"/>
	
		<rect x="-197.1" y="144.1" transform="matrix(-0.9659 0.2588 -0.2588 -0.9659 -348.1516 336.0171)" class="st0" width="1.9" height="1.9"/>
	
		<rect x="-200.9" y="145.1" transform="matrix(-0.9659 0.2588 -0.2588 -0.9659 -355.2176 338.7921)" class="st0" width="1.9" height="1.9"/>
	
		<rect x="-204.5" y="146.1" transform="matrix(-0.9659 0.2588 -0.2588 -0.9659 -362.0242 341.6745)" class="st0" width="1.9" height="1.9"/>
	
		<rect x="-208" y="147.1" transform="matrix(-0.9659 0.2588 -0.2588 -0.9659 -368.8308 344.5569)" class="st0" width="1.9" height="1.9"/>
	
		<rect x="-211.7" y="147.9" transform="matrix(-0.9659 0.2588 -0.2588 -0.9659 -375.7133 347.2562)" class="st0" width="1.9" height="1.9"/>
	
		<rect x="-215.4" y="149" transform="matrix(-0.9659 0.2588 -0.2588 -0.9659 -382.7033 350.2143)" class="st0" width="1.9" height="1.9"/>
	
		<rect x="-218.9" y="150" transform="matrix(-0.9659 0.2588 -0.2588 -0.9659 -389.5099 353.0967)" class="st0" width="1.9" height="1.9"/>
	
		<rect x="-222.6" y="150.9" transform="matrix(-0.9659 0.2588 -0.2588 -0.9659 -396.3924 355.796)" class="st0" width="1.9" height="1.9"/>
	
		<rect x="-226.2" y="151.8" transform="matrix(-0.9659 0.2588 -0.2588 -0.9659 -403.1993 358.6782)" class="st0" width="1.9" height="1.9"/>
</g>
</svg>
