<?xml version="1.0" encoding="utf-8"?>
<!-- Generator: Adobe Illustrator 19.0.0, SVG Export Plug-In . SVG Version: 6.00 Build 0)  -->
<svg version="1.1" id="Capa_1" xmlns="http://www.w3.org/2000/svg" xmlns:xlink="http://www.w3.org/1999/xlink" x="0px" y="0px"
	 viewBox="-132 8.1 284.9 284.9" style="enable-background:new -132 8.1 284.9 284.9;" xml:space="preserve">
<style type="text/css">
	.st0{fill:#FFFFFF;}
</style>
<g>
	<path class="st0" d="M150.1,84.6l-14.3-14.3c-1.9-1.9-4.1-2.9-6.6-2.9c-2.5,0-4.7,0.9-6.6,2.9L10.5,182.5L-101.7,70.3
		c-1.9-1.9-4.1-2.9-6.6-2.9c-2.5,0-4.7,1-6.6,2.9l-14.3,14.3c-1.9,1.9-2.9,4.1-2.9,6.6c0,2.5,1,4.7,2.9,6.6l133,133
		c1.9,1.9,4.1,2.9,6.6,2.9s4.7-1,6.6-2.9l133.1-133c1.9-1.9,2.8-4.1,2.8-6.6C152.9,88.7,152,86.5,150.1,84.6z"/>
</g>
</svg>
