<?xml version="1.0" encoding="utf-8"?>
<!-- Generator: Adobe Illustrator 19.0.0, SVG Export Plug-In . SVG Version: 6.00 Build 0)  -->
<svg version="1.1" id="Capa_1" xmlns="http://www.w3.org/2000/svg" xmlns:xlink="http://www.w3.org/1999/xlink" x="0px" y="0px"
	 viewBox="-132 8.1 284.9 284.9" style="enable-background:new -132 8.1 284.9 284.9;" xml:space="preserve">
<style type="text/css">
	.st0{fill:#305993;}
</style>
<g>
	<path class="st0" d="M-55.5,10.9l-14.3,14.3c-1.9,1.9-2.9,4.1-2.9,6.6s0.9,4.7,2.9,6.6L42.4,150.5L-69.8,262.6
		c-1.9,1.9-2.9,4.1-2.9,6.6s1,4.7,2.9,6.6l14.3,14.3c1.9,1.9,4.1,2.9,6.6,2.9s4.7-1,6.6-2.9l133-133c1.9-1.9,2.9-4.1,2.9-6.6
		s-1-4.7-2.9-6.6l-133-133.1c-1.9-1.9-4.1-2.8-6.6-2.8C-51.4,8.1-53.6,9-55.5,10.9z"/>
</g>
</svg>
