<?xml version="1.0" encoding="utf-8"?>
<!-- Generator: Adobe Illustrator 19.0.0, SVG Export Plug-In . SVG Version: 6.00 Build 0)  -->
<svg version="1.1" id="Livello_1" xmlns="http://www.w3.org/2000/svg" xmlns:xlink="http://www.w3.org/1999/xlink" x="0px" y="0px"
	 viewBox="-210 87 128 128" style="enable-background:new -210 87 128 128;" xml:space="preserve">
<style type="text/css">
	.st0{fill:#305993;}
</style>
<title></title>
<path class="st0" d="M-146,215c-1.8,0-3.6-0.7-4.9-2l-32.9-32.9c-10.5-10.4-16.3-24.6-16.2-39.4c0-14.3,5.7-28.1,15.9-38.1
	c21.2-20.7,55.1-20.7,76.3,0l0,0c10.2,10.1,15.9,23.8,15.9,38.1c0.1,14.8-5.7,29-16.2,39.4l-32.9,32.8
	C-142.4,214.3-144.2,215-146,215z M-146,93c-12.7,0-24.9,4.9-33.9,13.8c-9,8.9-14.1,21.1-14.1,33.8c-0.1,13.2,5.1,25.9,14.5,35.2
	l32.9,32.8c0.3,0.4,0.9,0.4,1.3,0c0,0,0,0,0,0l32.9-32.8c9.4-9.3,14.6-22,14.5-35.2c0-12.7-5-24.9-14.1-33.8l0,0
	C-121.1,97.9-133.3,93-146,93z"/>
<path class="st0" d="M-146,168.4c-15,0-27.2-12.2-27.2-27.3c0-15,12.2-27.2,27.3-27.2c15,0,27.2,12.2,27.2,27.3
	c0,7.2-2.9,14.1-8,19.2C-131.8,165.5-138.8,168.4-146,168.4z M-146,119.9c-11.7,0-21.2,9.6-21.2,21.3c0,11.7,9.6,21.2,21.3,21.2
	c11.7,0,21.2-9.6,21.2-21.3c0-5.6-2.3-11-6.2-15l0,0C-134.9,122.1-140.4,119.9-146,119.9z"/>
</svg>
