<?xml version="1.0" encoding="utf-8"?>
<!-- Generator: Adobe Illustrator 19.0.0, SVG Export Plug-In . SVG Version: 6.00 Build 0)  -->
<svg version="1.1" id="Слой_1" xmlns="http://www.w3.org/2000/svg" xmlns:xlink="http://www.w3.org/1999/xlink" x="0px" y="0px"
	 viewBox="-258 135 32 32" style="enable-background:new -258 135 32 32;" xml:space="preserve">
<style type="text/css">
	.st0{fill:#305993;}
	.st1{fill:none;}
</style>
<title></title>
<g id="Layer_2">
	<path class="st0" d="M-230,145h-24c-0.6,0-1-0.4-1-1s0.4-1,1-1h24c0.6,0,1,0.4,1,1S-229.4,145-230,145z"/>
	<path class="st0" d="M-230,152h-24c-0.6,0-1-0.4-1-1c0-0.6,0.4-1,1-1h24c0.6,0,1,0.4,1,1C-229,151.6-229.4,152-230,152z"/>
	<path class="st0" d="M-230,159h-24c-0.6,0-1-0.4-1-1s0.4-1,1-1h24c0.6,0,1,0.4,1,1S-229.4,159-230,159z"/>
</g>
<g id="frame">
	<rect x="-258" y="135" class="st1" width="32" height="32"/>
</g>
</svg>
