<?xml version="1.0" encoding="utf-8"?>
<!-- Generator: Adobe Illustrator 19.0.0, SVG Export Plug-In . SVG Version: 6.00 Build 0)  -->
<svg version="1.1" id="Layer_1" xmlns="http://www.w3.org/2000/svg" xmlns:xlink="http://www.w3.org/1999/xlink" x="0px" y="0px"
	 viewBox="-242 119 64 64" style="enable-background:new -242 119 64 64;" xml:space="preserve">
<style type="text/css">
	.st0{fill:#305993;}
</style>
<g>
	<path class="st0" d="M-242,183h64.4l-64.4-64.4V183z M-240,174h6v-2h-6v-6h4v-2h-4v-6h6v-2h-6v-6h4v-2h-4v-6h6v-2h-6v-16.6
		l57.6,57.6H-240V174z"/>
	<path class="st0" d="M-229,146.6V174h27.4L-229,146.6z M-227,151.4l20.6,20.6H-227V151.4z"/>
	<path class="st0" d="M-177.6,165.4l-2.5-9.9l-36.9-36.9l-7.4,7.4l36.9,36.9L-177.6,165.4z M-180.4,162.6l-6.1-1.5l-29.1-29.1
		l4.6-4.6l29.1,29.1L-180.4,162.6z M-217,121.4l4.6,4.6l-4.6,4.6l-4.6-4.6L-217,121.4z"/>
</g>
</svg>
