<?xml version="1.0" encoding="utf-8"?>
<!-- Generator: Adobe Illustrator 19.0.0, SVG Export Plug-In . SVG Version: 6.00 Build 0)  -->
<svg version="1.1" id="Слой_1" xmlns="http://www.w3.org/2000/svg" xmlns:xlink="http://www.w3.org/1999/xlink" x="0px" y="0px"
	 viewBox="-224 101 100 100" style="enable-background:new -224 101 100 100;" xml:space="preserve">
<style type="text/css">
	.st0{fill:#305993;}
</style>
<g transform="translate(0.000000,100.000000) scale(0.100000,-0.100000)">
	<path class="st0" d="M-2106-405c-74-153-133-283-131-289c5-11,164-62,171-55c10,12,51,100,66,144l17,50l18-60c9-33,30-92,46-130
		l29-71l118-38l117-37l200,71c110,39,204,75,209,80c8,8-223,583-243,603c-5,5-25,4-47-3c-92-27-309-24-412,6
		C-1969-128-1979-146-2106-405z M-1400-444c83-200,108-271,99-277c-34-21-342-120-349-113c-8,9-270,636-270,646c0,3,24,1,53-4
		c58-11,275-4,322,10c17,5,31,8,32,8C-1512-175-1461-297-1400-444z M-1828-517c70-169,126-309,124-311s-38,7-80,20l-76,23l-30,76
		c-16,42-39,115-51,162c-16,67-25,87-39,87c-11,0-21-14-29-42c-25-83-73-198-82-198c-31,0-99,24-96,34c19,47,221,456,226,456
		C-1958-210-1898-349-1828-517z"/>
</g>
</svg>
