<svg xmlns="http://www.w3.org/2000/svg" version="1.0" width="418.000000pt" height="332.000000pt" viewBox="0 0 418.000000 332.000000" preserveAspectRatio="xMidYMid meet">

<g transform="translate(0.000000,332.000000) scale(0.100000,-0.100000)" fill="#305993" stroke="none">
<path d="M455 3286 c-152 -38 -290 -145 -370 -288 -14 -25 -34 -80 -45 -123 -19 -76 -20 -112 -20 -1210 0 -759 4 -1151 11 -1191 17 -95 79 -213 152 -287 70 -71 127 -108 226 -146 l66 -26 1577 -3 c1367 -2 1587 0 1649 12 227 48 423 241 459 454 8 48 10 395 8 1207 -3 1072 -5 1143 -22 1195 -52 157 -155 285 -283 353 -137 72 -13 67 -1773 66 -1222 -1 -1596 -4 -1635 -13z m3242 -191 c52 -15 144 -71 150 -91 5 -17 -1765 -1406 -1780 -1397 -32 19 -1747 1375 -1747 1381 0 10 60 56 100 77 86 45 35 44 1671 44 1359 1 1562 -1 1606 -14z m271 -1477 l-3 -1154 -35 -58 c-60 -99 -169 -173 -290 -196 -34 -6 -587 -10 -1554 -10 -1628 0 -1586 -1 -1681 54 -89 53 -165 163 -185 268 -11 57 -12 2229 -2 2265 6 20 96 -48 882 -667 481 -380 894 -710 917 -734 24 -25 50 -43 62 -42 11 0 35 18 53 38 18 21 436 355 928 742 892 702 895 704 903 676 4 -16 6 -548 5 -1182z"/>
</g>
</svg>